<mxfile host="app.diagrams.net" modified="2023-07-19T13:51:04.424Z" agent="Mozilla/5.0 (Macintosh; Intel Mac OS X 10_15_7) AppleWebKit/605.1.15 (KHTML, like Gecko) Version/16.5 Safari/605.1.15" version="21.6.2" etag="1iToVN59M44-_tqgfODP" type="github">
  <diagram name="Page-1" id="TQiY2bgFi70chmA_Tr3e">
    <mxGraphModel>
      <root>
        <mxCell id="0" />
        <mxCell id="1" parent="0" />
      </root>
    </mxGraphModel>
  </diagram>
</mxfile>
